HIERARCHY
ROOT base
{
	OFFSET 0.000000 0.000000 0.000000
	CHANNELS 6 Xposition Yposition Zposition Xrotation Yrotation Zrotation
	JOINT torso
	{
		OFFSET 0.000000 0.000000 0.522674
		CHANNELS 3 Xrotation Yrotation Zrotation
		JOINT head
		{
			OFFSET 0.000000 0.000000 0.302405
			CHANNELS 3 Xrotation Yrotation Zrotation
			End Site
			{
				OFFSET 0.000000 0.000000 0.195674
			}
		}
		JOINT arm.upper.left
		{
			OFFSET 0.130449 0.000000 0.254969
			CHANNELS 6 Xposition Yposition Zposition Xrotation Yrotation Zrotation
			JOINT arm.lower.left
			{
				OFFSET 0.002965 0.000000 -0.195674
				CHANNELS 3 Xrotation Yrotation Zrotation
				End Site
				{
					OFFSET 0.008894 0.000000 -0.180850
				}
			}
		}
		JOINT arm.upper.right
		{
			OFFSET -0.130449 0.000000 0.254969
			CHANNELS 6 Xposition Yposition Zposition Xrotation Yrotation Zrotation
			JOINT arm.lower.right
			{
				OFFSET -0.002965 0.000000 -0.195674
				CHANNELS 3 Xrotation Yrotation Zrotation
				End Site
				{
					OFFSET -0.008894 0.000000 -0.180850
				}
			}
		}
	}
	JOINT leg.upper.left
	{
		OFFSET 0.068189 0.000000 0.475238
		CHANNELS 6 Xposition Yposition Zposition Xrotation Yrotation Zrotation
		JOINT leg.lower.left
		{
			OFFSET 0.017789 0.000000 -0.234216
			CHANNELS 3 Xrotation Yrotation Zrotation
			End Site
			{
				OFFSET 0.014824 0.000000 -0.240145
			}
		}
	}
	JOINT leg.upper.right
	{
		OFFSET -0.068189 0.000000 0.475238
		CHANNELS 6 Xposition Yposition Zposition Xrotation Yrotation Zrotation
		JOINT leg.lower.right
		{
			OFFSET -0.017789 0.000000 -0.234216
			CHANNELS 3 Xrotation Yrotation Zrotation
			End Site
			{
				OFFSET -0.014824 0.000000 -0.240145
			}
		}
	}
}
MOTION
Frames: 20
Frame Time: 0.041667
0.000000 0.000000 0.000000 -0.000000 0.000000 -0.000000 -0.000000 0.000000 -0.000000 -0.000000 0.000000 -0.000000 0.130449 0.000000 0.254969 1.066910 -0.600264 0.054663 -0.289512 1.945408 0.055018 -0.130449 0.000000 0.254969 0.755671 0.750826 -0.029867 0.276968 -1.941643 0.057173 0.068189 0.000000 0.475238 -1.124960 0.828534 -0.138343 0.310781 -0.798858 -0.097516 -0.068189 0.000000 0.475238 1.834209 -0.781650 -0.175438 -0.309497 0.801333 0.065143 
0.000000 0.000000 0.000000 -0.000000 0.000000 -0.000000 -0.000000 -0.000000 -4.530342 -0.000000 0.000000 0.000000 0.130449 0.000000 0.254969 1.047186 -0.681644 0.069301 -6.529313 -2.053271 -0.266391 -0.130449 0.000000 0.254969 0.755671 0.750826 -0.029867 -3.210481 5.056098 0.336808 0.068189 0.000000 0.475238 -1.912229 0.836366 -0.186642 0.227822 -0.800091 -0.103762 -0.068189 0.000000 0.475238 3.315389 -0.809258 -0.267284 -0.226908 0.802017 0.058958 
0.000000 0.000000 0.000000 -0.000000 0.000000 -0.000000 -0.000000 -0.000000 -16.489982 -0.000000 0.000000 0.000000 0.130449 0.000000 0.254969 0.995688 -0.894536 0.107463 -23.735614 -12.411151 -3.314018 -0.130449 0.000000 0.254969 0.755671 0.750826 -0.029865 -14.144743 23.653211 3.411623 0.068189 0.000000 0.475238 -3.972054 0.860005 -0.312459 0.010824 -0.803273 -0.120102 -0.068189 0.000000 0.475238 7.193355 -0.892625 -0.504077 -0.010875 0.803762 0.042774 
0.000000 0.000000 0.000000 -0.000000 0.000000 -0.000000 -0.000000 -0.000000 -28.429155 -0.000000 0.000000 0.000000 0.130449 0.000000 0.254969 0.944329 -1.107462 0.145438 -42.344612 -21.335148 -9.632783 -0.130449 0.000000 0.254969 0.755671 0.750826 -0.029867 -31.016534 41.136368 12.155228 0.068189 0.000000 0.475238 -6.031729 0.888157 -0.437337 -0.206178 -0.806392 -0.136455 -0.068189 0.000000 0.475238 11.070317 -0.991748 -0.734652 0.205158 0.805446 0.026585 
0.000000 0.000000 0.000000 -0.000000 0.000000 -0.000000 -0.000000 0.000000 -32.940998 -0.000000 -0.000000 -0.000002 0.130449 -0.000000 0.254969 0.924731 -1.188873 0.159902 -49.763980 -24.053172 -12.813344 -0.130449 0.000000 0.254969 0.755671 0.750826 -0.029870 -44.462056 46.840915 19.373582 0.068189 0.000000 0.475238 -6.818863 0.900098 -0.484783 -0.289138 -0.807569 -0.142711 -0.068189 0.000000 0.475238 12.550589 -1.033678 -0.820843 0.287749 0.806073 0.020394 
0.000000 0.000000 0.000000 -0.000000 0.000000 -0.000000 -0.000000 -0.000000 -30.236681 0.000000 0.000000 0.000000 0.130449 0.000000 0.254969 0.931158 -1.162166 0.155160 -47.314394 -23.211686 -11.729694 -0.130449 -0.000000 0.254969 0.511033 0.744662 0.062592 -49.723060 43.721096 17.815427 0.068189 -0.000000 0.475238 -6.263987 0.830684 -0.454132 -0.258564 -0.810950 -0.140529 -0.068189 0.000000 0.475238 11.692457 -1.084674 -0.764443 0.259095 0.803554 0.022616 
0.000000 0.000000 0.000000 -0.000000 0.000000 -0.000000 -0.000000 -0.000000 -22.041884 -0.000000 0.000000 0.000000 0.130449 0.000000 0.254969 0.950184 -1.083160 0.141111 -40.140496 -20.437613 -8.752770 -0.130449 0.000000 0.254969 -0.212785 0.724112 0.335999 -51.269002 34.253631 8.702794 0.068189 0.000000 0.475238 -4.620695 0.626914 -0.359448 -0.168117 -0.820946 -0.134053 -0.068189 0.000000 0.475238 9.147973 -1.240764 -0.601766 0.174333 0.796094 0.029182 
0.000000 0.000000 0.000000 -0.000000 0.000000 -0.000000 -0.000000 -0.000000 -9.139506 -0.000000 0.000000 0.000000 0.130449 0.000000 0.254969 0.979208 -0.962794 0.119655 -29.512558 -15.499651 -4.984112 -0.130449 0.000000 0.254969 -1.315663 0.686156 0.752122 -52.867225 18.671799 -5.503689 0.068189 0.000000 0.475238 -2.113206 0.321499 -0.203851 -0.030307 -0.836158 -0.124137 -0.068189 0.000000 0.475238 5.259390 -1.492825 -0.366910 0.045184 0.784709 0.039165 
0.000000 0.000000 0.000000 -0.000000 0.000000 -0.000000 0.000000 -0.000000 5.741988 -0.000000 0.000000 0.000000 0.130449 0.000000 0.254969 1.012183 -0.826281 0.095248 -18.012329 -9.156382 -1.967910 -0.130449 0.000000 0.254969 -2.566367 0.633414 1.223175 -57.574390 0.857024 -21.677064 0.068189 0.000000 0.475238 0.733704 -0.016506 -0.011261 0.126007 -0.853381 -0.112803 -0.068189 0.000000 0.475238 0.842030 -1.797636 -0.121502 -0.101297 0.771768 0.050456 
0.000000 0.000000 0.000000 -0.000000 0.000000 -0.000000 0.000000 -0.000000 18.683579 -0.000000 -0.000000 -0.000002 0.130449 0.000000 0.254969 1.041302 -0.705938 0.073667 -8.382465 -3.245460 -0.445514 -0.130449 0.000000 0.254969 -3.668498 0.578406 1.637376 -64.644599 -12.976222 -36.598746 0.068189 0.000000 0.475238 3.243327 -0.306103 0.172184 0.263818 -0.868541 -0.102705 -0.068189 0.000000 0.475238 -3.047658 -2.080826 0.074654 -0.230438 0.760336 0.060384 
0.000000 0.000000 0.000000 -0.000000 0.000000 -0.000000 0.000000 -0.000000 26.895477 -0.000000 0.000000 0.000000 0.130449 0.000000 0.254969 1.060437 -0.626959 0.059468 -2.304138 0.645031 -0.001106 -0.130449 0.000000 0.254969 -4.391449 0.537987 1.908554 -70.597279 -20.382685 -46.833887 0.068189 0.000000 0.475238 4.888878 -0.491454 0.299244 0.354263 -0.878477 -0.095949 -0.068189 0.000000 0.475238 -5.592497 -2.272736 0.192448 -0.315196 0.752819 0.066887 
0.000000 0.000000 0.000000 -0.000000 0.000000 -0.000000 -0.000000 0.000000 29.553887 -0.000000 0.000000 -0.000000 0.130449 0.000000 0.254969 1.066910 -0.600264 0.054658 -0.289512 1.945408 0.055016 -0.130449 -0.000000 0.254969 -4.635723 0.523554 2.000083 -72.786498 -22.546118 -50.351943 0.068189 0.000000 0.475238 5.444264 -0.553171 0.343319 0.384826 -0.881833 -0.093481 -0.068189 0.000000 0.475238 -6.448928 -2.337963 0.230210 -0.343845 0.750276 0.069082 
0.000000 0.000000 0.000000 -0.000000 0.000000 -0.000000 0.000000 -0.000000 28.500252 -0.000000 0.000000 0.000000 0.130449 0.000000 0.254969 1.066910 -0.600264 0.054661 -0.289512 1.945408 0.055021 -0.130449 0.000000 0.254969 -4.448860 0.534630 1.930069 -70.224173 -22.978379 -48.468286 0.068189 0.000000 0.475238 5.215714 -0.506174 0.323944 0.382244 -0.878954 -0.093398 -0.068189 0.000000 0.475238 -6.159687 -2.282332 0.219895 -0.342655 0.752048 0.068946 
0.000000 0.000000 0.000000 -0.000000 0.000000 -0.000000 0.000000 -0.000000 25.503460 -0.000000 0.000000 0.000000 0.130449 0.000000 0.254969 1.066910 -0.600264 0.054663 -0.289512 1.945408 0.055018 -0.130449 0.000000 0.254969 -3.890920 0.566336 1.720853 -62.236568 -23.811460 -42.548182 0.068189 0.000000 0.475238 4.534778 -0.365541 0.267301 0.374567 -0.870358 -0.093697 -0.068189 0.000000 0.475238 -5.301554 -2.118501 0.187549 -0.339097 0.757337 0.068539 
0.000000 0.000000 0.000000 -0.000000 0.000000 -0.000000 -0.000000 0.000000 20.808364 -0.000000 0.000000 -0.000000 0.130449 0.000000 0.254969 1.066910 -0.600264 0.054661 -0.289511 1.945408 0.055019 -0.130449 0.000000 0.254969 -3.012125 0.612129 1.390803 -48.982903 -23.511033 -32.681905 0.068189 0.000000 0.475238 3.463142 -0.142774 0.181526 0.362492 -0.856828 -0.094334 -0.068189 0.000000 0.475238 -3.951596 -1.862086 0.131685 -0.333495 0.765663 0.067898 
0.000000 0.000000 0.000000 -0.000000 0.000000 -0.000000 -0.000000 0.000000 15.081201 -0.000000 -0.000000 -0.000000 0.130449 0.000000 0.254969 1.066910 -0.600264 0.054664 -0.289512 1.945408 0.055021 -0.130449 0.000000 0.254969 -1.941086 0.661070 0.987795 -32.863564 -20.249834 -20.918655 0.068189 0.000000 0.475238 2.157982 0.130760 0.082674 0.347785 -0.840345 -0.095194 -0.068189 0.000000 0.475238 -2.306896 -1.551733 0.055485 -0.326672 0.775806 0.067116 
0.000000 0.000000 0.000000 -0.000000 0.000000 -0.000000 -0.000000 0.000000 9.351810 -0.000000 -0.000000 -0.000000 0.130449 0.000000 0.254969 1.066910 -0.600264 0.054663 -0.289512 1.945408 0.055020 -0.130449 0.000000 0.254969 -0.869712 0.702470 0.583933 -18.132930 -14.197566 -10.809023 0.068189 0.000000 0.475238 0.853213 0.406495 -0.009929 0.333083 -0.823863 -0.096097 -0.068189 0.000000 0.475238 -0.661763 -1.243731 -0.029600 -0.319849 0.785948 0.066334 
0.000000 0.000000 0.000000 -0.000000 0.000000 -0.000000 -0.000000 0.000000 4.660071 -0.000000 -0.000000 -0.000000 0.130449 0.000000 0.254969 1.066910 -0.600264 0.054663 -0.289512 1.945408 0.055018 -0.130449 0.000000 0.254969 0.009858 0.730802 0.251922 -7.579860 -7.833599 -4.255968 0.068189 0.000000 0.475238 -0.217447 0.634348 -0.081234 0.321014 -0.810332 -0.096858 -0.068189 0.000000 0.475238 0.688896 -0.992855 -0.106027 -0.314247 0.794274 0.065690 
0.000000 0.000000 0.000000 -0.000000 0.000000 -0.000000 -0.000000 0.000000 1.691136 0.000000 -0.000000 -0.000000 0.130449 0.000000 0.254969 1.066910 -0.600264 0.054662 -0.289512 1.945408 0.055019 -0.130449 0.000000 0.254969 0.568524 0.746147 0.040863 -1.606576 -3.442563 -0.923566 0.068189 0.000000 0.475238 -0.897262 0.779724 -0.124302 0.313349 -0.801737 -0.097350 -0.068189 0.000000 0.475238 1.546807 -0.834511 -0.157625 -0.310689 0.799562 0.065281 
0.000000 0.000000 0.000000 -0.000000 0.000000 -0.000000 -0.000000 0.000000 0.699023 -0.000000 -0.000000 -0.000000 0.130449 0.000000 0.254969 1.066910 -0.600264 0.054662 -0.289512 1.945408 0.055019 -0.130449 0.000000 0.254969 0.755671 0.750826 -0.029866 0.276968 -1.941643 0.057173 0.068189 0.000000 0.475238 -1.124960 0.828534 -0.138343 0.310781 -0.798858 -0.097516 -0.068189 0.000000 0.475238 1.834209 -0.781650 -0.175438 -0.309497 0.801333 0.065143 
